<svg xmlns="http://www.w3.org/2000/svg" viewBox="0 0 150 150"><defs><style>.a{fill:#fff;}</style></defs><path class="a" d="M115.14,110.58H42.22A5.55,5.55,0,0,1,36.68,105V61.24a5.55,5.55,0,0,1,5.54-5.54h72.92a5.54,5.54,0,0,1,5.54,5.54V105A5.55,5.55,0,0,1,115.14,110.58ZM42.22,59A2.2,2.2,0,0,0,40,61.24V105a2.19,2.19,0,0,0,2.19,2.19h72.92a2.19,2.19,0,0,0,2.19-2.19V61.24a2.2,2.2,0,0,0-2.19-2.2Z"/><path class="a" d="M79.15,95.14a4.51,4.51,0,0,1-3-1.14L37.73,59.65,40,57.15l38.4,34.36a1.26,1.26,0,0,0,1.58,0l37.45-34.23,2.26,2.47L82.2,94A4.5,4.5,0,0,1,79.15,95.14Z"/><path class="a" d="M39.77,109.12a1.68,1.68,0,0,1-1.15-2.89L64.39,81.92a1.67,1.67,0,0,1,2.37.07,1.68,1.68,0,0,1-.07,2.37l-25.77,24.3A1.63,1.63,0,0,1,39.77,109.12Z"/><path class="a" d="M117.59,109.12a1.65,1.65,0,0,1-1.15-.46L90.67,84.36A1.68,1.68,0,0,1,90.6,82,1.67,1.67,0,0,1,93,81.92l25.77,24.31a1.67,1.67,0,0,1-1.15,2.89Z"/></svg>